<svg xmlns="http://www.w3.org/2000/svg" width="7.75in" height="3in" viewBox="0 0 558 216">
  <g>
    <rect x="432" y="144" width="72" height="18" fill="#3450a3"/>
    <path d="M610.47,306l-12.74-12.73L592.47,288l-36-36H297v36H81V421.45l18,18L109.55,450l18,18H639V334.53ZM243,342H135v72h72V396H171V360h72v90H135L99,414V306H243Zm54,108H261V414h36Zm18-180H548.87v-.13L567,288H315ZM459,450H315V414H423V396H386.91L351,360.09V360h72V342H315V306H459Zm162-90v90H477V306H585l36,36H513v18Z" transform="translate(-81 -252)" fill="#3450a3"/>
  </g>
</svg>
